<svg width="54" height="54" viewBox="0 0 54 54" fill="none" xmlns="http://www.w3.org/2000/svg">
<path d="M40.1996 26.366C46.7398 26.366 52.0417 20.9208 52.0417 14.2038C52.0417 7.48684 46.7398 2.04166 40.1996 2.04166C33.6594 2.04166 28.3575 7.48684 28.3575 14.2038C28.3575 20.9208 33.6594 26.366 40.1996 26.366Z" stroke="#FFCD29" stroke-width="4" stroke-linecap="round" stroke-linejoin="round"/>
<path d="M11.2522 38.5281C16.339 38.5281 20.4627 34.293 20.4627 29.0687C20.4627 23.8444 16.339 19.6092 11.2522 19.6092C6.16538 19.6092 2.04169 23.8444 2.04169 29.0687C2.04169 34.293 6.16538 38.5281 11.2522 38.5281Z" stroke="#FFCD29" stroke-width="4" stroke-linecap="round" stroke-linejoin="round"/>
<path d="M33.6206 52.0417C37.2541 52.0417 40.1996 49.0165 40.1996 45.2849C40.1996 41.5532 37.2541 38.5281 33.6206 38.5281C29.9872 38.5281 27.0417 41.5532 27.0417 45.2849C27.0417 49.0165 29.9872 52.0417 33.6206 52.0417Z" stroke="#FFCD29" stroke-width="4" stroke-linecap="round" stroke-linejoin="round"/>
</svg>
