<svg width="18" height="18" viewBox="0 0 18 18" fill="none" xmlns="http://www.w3.org/2000/svg">
<path d="M7.75 15.5H16C17.1045 15.5 18 14.6045 18 13.25V10.25H7.75V15.5ZM16 2.5H7.75V7.75H18V4.5C18 3.96957 17.7893 3.46086 17.4142 3.08579C17.0391 2.71071 16.5304 2.5 16 2.5ZM5.25 2.5H2C1.46983 2.5 0.961346 2.71051 0.586317 3.08526C0.211287 3.46 0.00039763 3.96833 0 4.4985L0 7.75H5.25V2.5ZM0 10.25V13.252C0.001 14.6055 0.896 15.5 2 15.5H5.25V10.25H0Z" fill="#006AA7"/>
<path d="M7.75 2.5H5.25V7.75H0V10.25H5.25V15.5H7.75V10.25H18V7.75H7.75V2.5Z" fill="#FECC00"/>
</svg>
