<svg width="339" height="78" viewBox="0 0 339 78" fill="none" xmlns="http://www.w3.org/2000/svg">
<g clip-path="url(#clip0_2001_2)">
<line x1="5.29289" y1="27.8929" x2="31.6929" y2="1.4929" stroke="#B6B6B6" stroke-width="2"/>
<line y1="-1" x2="37.3352" y2="-1" transform="matrix(0.707107 0.707107 0.707107 -0.707107 32.3999 2.20001)" stroke="#B6B6B6" stroke-width="2"/>
<line y1="-1" x2="37.3352" y2="-1" transform="matrix(0.707107 0.707107 0.707107 -0.707107 85.2 2.20001)" stroke="#B6B6B6" stroke-width="2"/>
<line y1="-1" x2="37.3352" y2="-1" transform="matrix(0.707107 0.707107 0.707107 -0.707107 138 2.20001)" stroke="#B6B6B6" stroke-width="2"/>
<line y1="-1" x2="37.3352" y2="-1" transform="matrix(0.707107 0.707107 0.707107 -0.707107 190.8 2.20001)" stroke="#B6B6B6" stroke-width="2"/>
<line y1="-1" x2="37.3352" y2="-1" transform="matrix(0.707107 0.707107 0.707107 -0.707107 243.6 2.20001)" stroke="#B6B6B6" stroke-width="2"/>
<line y1="-1" x2="37.3352" y2="-1" transform="matrix(0.707107 0.707107 0.707107 -0.707107 296.4 2.20001)" stroke="#B6B6B6" stroke-width="2"/>
<line x1="58.0928" y1="27.8929" x2="84.4928" y2="1.4929" stroke="#B6B6B6" stroke-width="2"/>
<line x1="110.893" y1="27.8929" x2="137.293" y2="1.4929" stroke="#B6B6B6" stroke-width="2"/>
<line x1="163.693" y1="27.8929" x2="190.093" y2="1.4929" stroke="#B6B6B6" stroke-width="2"/>
<line x1="216.493" y1="27.8929" x2="242.893" y2="1.4929" stroke="#B6B6B6" stroke-width="2"/>
<line x1="269.293" y1="27.8929" x2="295.693" y2="1.4929" stroke="#B6B6B6" stroke-width="2"/>
<line x1="5.29289" y1="48.3475" x2="31.6929" y2="21.9475" stroke="#B6B6B6" stroke-width="2"/>
<line y1="-1" x2="37.3352" y2="-1" transform="matrix(0.707107 0.707107 0.707107 -0.707107 32.3999 22.6545)" stroke="#B6B6B6" stroke-width="2"/>
<line y1="-1" x2="37.3352" y2="-1" transform="matrix(0.707107 0.707107 0.707107 -0.707107 85.2 22.6545)" stroke="#B6B6B6" stroke-width="2"/>
<line y1="-1" x2="37.3352" y2="-1" transform="matrix(0.707107 0.707107 0.707107 -0.707107 138 22.6545)" stroke="#B6B6B6" stroke-width="2"/>
<line y1="-1" x2="37.3352" y2="-1" transform="matrix(0.707107 0.707107 0.707107 -0.707107 190.8 22.6545)" stroke="#B6B6B6" stroke-width="2"/>
<line y1="-1" x2="37.3352" y2="-1" transform="matrix(0.707107 0.707107 0.707107 -0.707107 243.6 22.6545)" stroke="#B6B6B6" stroke-width="2"/>
<line y1="-1" x2="37.3352" y2="-1" transform="matrix(0.707107 0.707107 0.707107 -0.707107 296.4 22.6545)" stroke="#B6B6B6" stroke-width="2"/>
<line x1="58.0928" y1="48.3475" x2="84.4928" y2="21.9475" stroke="#B6B6B6" stroke-width="2"/>
<line x1="110.893" y1="48.3475" x2="137.293" y2="21.9475" stroke="#B6B6B6" stroke-width="2"/>
<line x1="163.693" y1="48.3475" x2="190.093" y2="21.9475" stroke="#B6B6B6" stroke-width="2"/>
<line x1="216.493" y1="48.3475" x2="242.893" y2="21.9475" stroke="#B6B6B6" stroke-width="2"/>
<line x1="269.293" y1="48.3475" x2="295.693" y2="21.9475" stroke="#B6B6B6" stroke-width="2"/>
<line x1="5.29289" y1="68.1202" x2="31.6929" y2="41.7202" stroke="#B6B6B6" stroke-width="2"/>
<line y1="-1" x2="37.3352" y2="-1" transform="matrix(0.707107 0.707107 0.707107 -0.707107 32.3999 42.4273)" stroke="#B6B6B6" stroke-width="2"/>
<line y1="-1" x2="37.3352" y2="-1" transform="matrix(0.707107 0.707107 0.707107 -0.707107 85.2 42.4273)" stroke="#B6B6B6" stroke-width="2"/>
<line y1="-1" x2="37.3352" y2="-1" transform="matrix(0.707107 0.707107 0.707107 -0.707107 138 42.4273)" stroke="#B6B6B6" stroke-width="2"/>
<line y1="-1" x2="37.3352" y2="-1" transform="matrix(0.707107 0.707107 0.707107 -0.707107 190.8 42.4273)" stroke="#B6B6B6" stroke-width="2"/>
<line y1="-1" x2="37.3352" y2="-1" transform="matrix(0.707107 0.707107 0.707107 -0.707107 243.6 42.4273)" stroke="#B6B6B6" stroke-width="2"/>
<line y1="-1" x2="37.3352" y2="-1" transform="matrix(0.707107 0.707107 0.707107 -0.707107 296.4 42.4273)" stroke="#B6B6B6" stroke-width="2"/>
<line x1="58.0928" y1="68.1202" x2="84.4928" y2="41.7202" stroke="#B6B6B6" stroke-width="2"/>
<line x1="110.893" y1="68.1202" x2="137.293" y2="41.7202" stroke="#B6B6B6" stroke-width="2"/>
<line x1="163.693" y1="68.1202" x2="190.093" y2="41.7202" stroke="#B6B6B6" stroke-width="2"/>
<line x1="216.493" y1="68.1202" x2="242.893" y2="41.7202" stroke="#B6B6B6" stroke-width="2"/>
<line x1="269.293" y1="68.1202" x2="295.693" y2="41.7202" stroke="#B6B6B6" stroke-width="2"/>
</g>
<defs>
<clipPath id="clip0_2001_2">
<rect width="339" height="77" fill="white" transform="translate(0 0.399994)"/>
</clipPath>
</defs>
</svg>
