<svg width="339" height="90" viewBox="0 0 339 90" fill="none" xmlns="http://www.w3.org/2000/svg">
<g clip-path="url(#clip0_2001_2)">
<line x1="11.2929" y1="41.2929" x2="37.6929" y2="14.8929" stroke="#B6B6B6" stroke-width="2"/>
<line y1="-1" x2="37.3352" y2="-1" transform="matrix(0.707107 0.707107 0.707107 -0.707107 38.3999 15.6)" stroke="#B6B6B6" stroke-width="2"/>
<line y1="-1" x2="37.3352" y2="-1" transform="matrix(0.707107 0.707107 0.707107 -0.707107 91.2 15.6)" stroke="#B6B6B6" stroke-width="2"/>
<line y1="-1" x2="37.3352" y2="-1" transform="matrix(0.707107 0.707107 0.707107 -0.707107 144 15.6)" stroke="#B6B6B6" stroke-width="2"/>
<line y1="-1" x2="37.3352" y2="-1" transform="matrix(0.707107 0.707107 0.707107 -0.707107 196.8 15.6)" stroke="#B6B6B6" stroke-width="2"/>
<line y1="-1" x2="37.3352" y2="-1" transform="matrix(0.707107 0.707107 0.707107 -0.707107 249.6 15.6)" stroke="#B6B6B6" stroke-width="2"/>
<line y1="-1" x2="37.3352" y2="-1" transform="matrix(0.707107 0.707107 0.707107 -0.707107 302.4 15.6)" stroke="#B6B6B6" stroke-width="2"/>
<line x1="64.0928" y1="41.2929" x2="90.4928" y2="14.8929" stroke="#B6B6B6" stroke-width="2"/>
<line x1="116.893" y1="41.2929" x2="143.293" y2="14.8929" stroke="#B6B6B6" stroke-width="2"/>
<line x1="169.693" y1="41.2929" x2="196.093" y2="14.8929" stroke="#B6B6B6" stroke-width="2"/>
<line x1="222.493" y1="41.2929" x2="248.893" y2="14.8929" stroke="#B6B6B6" stroke-width="2"/>
<line x1="275.293" y1="41.2929" x2="301.693" y2="14.8929" stroke="#B6B6B6" stroke-width="2"/>
<line x1="11.2929" y1="64.1565" x2="37.6929" y2="37.7565" stroke="#B6B6B6" stroke-width="2"/>
<line y1="-1" x2="37.3352" y2="-1" transform="matrix(0.707107 0.707107 0.707107 -0.707107 38.3999 38.4636)" stroke="#B6B6B6" stroke-width="2"/>
<line y1="-1" x2="37.3352" y2="-1" transform="matrix(0.707107 0.707107 0.707107 -0.707107 91.2 38.4636)" stroke="#B6B6B6" stroke-width="2"/>
<line y1="-1" x2="37.3352" y2="-1" transform="matrix(0.707107 0.707107 0.707107 -0.707107 144 38.4636)" stroke="#B6B6B6" stroke-width="2"/>
<line y1="-1" x2="37.3352" y2="-1" transform="matrix(0.707107 0.707107 0.707107 -0.707107 196.8 38.4636)" stroke="#B6B6B6" stroke-width="2"/>
<line y1="-1" x2="37.3352" y2="-1" transform="matrix(0.707107 0.707107 0.707107 -0.707107 249.6 38.4636)" stroke="#B6B6B6" stroke-width="2"/>
<line y1="-1" x2="37.3352" y2="-1" transform="matrix(0.707107 0.707107 0.707107 -0.707107 302.4 38.4636)" stroke="#B6B6B6" stroke-width="2"/>
<line x1="64.0928" y1="64.1565" x2="90.4928" y2="37.7565" stroke="#B6B6B6" stroke-width="2"/>
<line x1="116.893" y1="64.1565" x2="143.293" y2="37.7565" stroke="#B6B6B6" stroke-width="2"/>
<line x1="169.693" y1="64.1565" x2="196.093" y2="37.7565" stroke="#B6B6B6" stroke-width="2"/>
<line x1="222.493" y1="64.1565" x2="248.893" y2="37.7565" stroke="#B6B6B6" stroke-width="2"/>
<line x1="275.293" y1="64.1565" x2="301.693" y2="37.7565" stroke="#B6B6B6" stroke-width="2"/>
<line x1="11.2929" y1="86.2581" x2="37.6929" y2="59.8581" stroke="#B6B6B6" stroke-width="2"/>
<line y1="-1" x2="37.3352" y2="-1" transform="matrix(0.707107 0.707107 0.707107 -0.707107 38.3999 60.5652)" stroke="#B6B6B6" stroke-width="2"/>
<line y1="-1" x2="37.3352" y2="-1" transform="matrix(0.707107 0.707107 0.707107 -0.707107 91.2 60.5652)" stroke="#B6B6B6" stroke-width="2"/>
<line y1="-1" x2="37.3352" y2="-1" transform="matrix(0.707107 0.707107 0.707107 -0.707107 144 60.5652)" stroke="#B6B6B6" stroke-width="2"/>
<line y1="-1" x2="37.3352" y2="-1" transform="matrix(0.707107 0.707107 0.707107 -0.707107 196.8 60.5652)" stroke="#B6B6B6" stroke-width="2"/>
<line y1="-1" x2="37.3352" y2="-1" transform="matrix(0.707107 0.707107 0.707107 -0.707107 249.6 60.5652)" stroke="#B6B6B6" stroke-width="2"/>
<line y1="-1" x2="37.3352" y2="-1" transform="matrix(0.707107 0.707107 0.707107 -0.707107 302.4 60.5652)" stroke="#B6B6B6" stroke-width="2"/>
<line x1="64.0928" y1="86.2581" x2="90.4928" y2="59.8581" stroke="#B6B6B6" stroke-width="2"/>
<line x1="116.893" y1="86.2581" x2="143.293" y2="59.8581" stroke="#B6B6B6" stroke-width="2"/>
<line x1="169.693" y1="86.2581" x2="196.093" y2="59.8581" stroke="#B6B6B6" stroke-width="2"/>
<line x1="222.493" y1="86.2581" x2="248.893" y2="59.8581" stroke="#B6B6B6" stroke-width="2"/>
<line x1="275.293" y1="86.2581" x2="301.693" y2="59.8581" stroke="#B6B6B6" stroke-width="2"/>
</g>
<defs>
<clipPath id="clip0_2001_2">
<rect width="339" height="89" fill="white" transform="translate(0 0.399994)"/>
</clipPath>
</defs>
</svg>
